<svg width="46" height="46" viewBox="0 0 46 46" fill="none" xmlns="http://www.w3.org/2000/svg">
<g id="Component 3">
<path id="Vector" d="M28.0293 40.074V41.3746C28.0293 41.8949 27.8703 42.3573 27.5524 42.7619C27.2345 43.1665 26.8154 43.3977 26.2952 43.4555L26.0351 44.5827C25.8038 45.3342 25.3125 45.7099 24.5611 45.7099H21.4397C20.6882 45.7099 20.1969 45.3342 19.9657 44.5827L19.7056 43.4555C19.1853 43.3977 18.7663 43.1665 18.4484 42.7619C18.1304 42.3573 17.9715 41.8949 17.9715 41.3746V40.074C17.9715 39.8428 18.0148 39.6405 18.1015 39.4671C18.1882 39.2937 18.3327 39.1492 18.5351 39.0336C18.7374 38.918 18.9541 38.8602 19.1853 38.8602H26.8154C27.0466 38.8602 27.2634 38.918 27.4657 39.0336C27.668 39.1492 27.8125 39.2937 27.8992 39.4671C27.9859 39.6405 28.0293 39.8428 28.0293 40.074ZM33.9252 22.6463C33.9252 25.5943 32.9137 28.1087 30.8906 30.1897C29.3877 31.7503 28.4917 33.5712 28.2027 35.6521C28.1449 36.1145 27.9426 36.4902 27.5958 36.7792C27.2489 37.0683 26.8443 37.2128 26.3819 37.2128H19.6189C19.1564 37.2128 18.7518 37.0683 18.405 36.7792C18.0582 36.4902 17.8559 36.1145 17.7981 35.6521C17.4512 33.5134 16.5553 31.6925 15.1102 30.1897C13.0871 28.1087 12.0755 25.6232 12.0755 22.733C12.0177 19.7272 13.0582 17.1405 15.1969 14.9729C17.3356 12.8053 19.9223 11.707 22.957 11.6781C25.9917 11.6492 28.5784 12.7041 30.7171 14.8428C32.8559 16.9816 33.9252 19.5827 33.9252 22.6463ZM24.2143 15.97C24.2143 15.7966 24.1564 15.6087 24.0408 15.4064C23.9252 15.2041 23.7807 15.0451 23.6073 14.9295C23.4339 14.8139 23.2316 14.7561 23.0004 14.7561C20.8038 14.7561 18.9397 15.5365 17.4079 17.0972C15.8761 18.6579 15.1102 20.5076 15.1102 22.6463C15.1102 22.9931 15.2258 23.2821 15.457 23.5134C15.6882 23.7446 15.9773 23.8602 16.3241 23.8602C16.6709 23.8602 16.9599 23.7446 17.1911 23.5134C17.4223 23.2821 17.538 22.9931 17.538 22.6463C17.538 21.1434 18.0726 19.8717 19.142 18.8313C20.2114 17.7908 21.4975 17.2706 23.0004 17.2706C23.3472 17.2706 23.6362 17.1405 23.8674 16.8804C24.0986 16.6203 24.2143 16.3168 24.2143 15.97ZM23.0004 8.07983C22.6536 8.07983 22.3645 7.96422 22.1333 7.73301C21.9021 7.50179 21.7865 7.21278 21.7865 6.86596V2.53069C21.7865 2.18387 21.9021 1.89486 22.1333 1.66364C22.3645 1.43243 22.6536 1.31682 23.0004 1.31682C23.3472 1.31682 23.6362 1.43243 23.8674 1.66364C24.0986 1.89486 24.2143 2.18387 24.2143 2.53069V6.86596C24.2143 7.03936 24.1853 7.19833 24.1275 7.34283C24.0697 7.48734 23.983 7.6174 23.8674 7.73301C23.7518 7.84861 23.6218 7.93532 23.4773 7.99312C23.3327 8.05093 23.1738 8.07983 23.0004 8.07983ZM8.52061 22.6463C8.52061 22.8775 8.46281 23.0798 8.3472 23.2532C8.23159 23.4266 8.07263 23.5712 7.87032 23.6868C7.66801 23.8024 7.45125 23.8602 7.22003 23.8602H2.97148C2.62466 23.8602 2.32119 23.7446 2.06107 23.5134C1.80096 23.2821 1.6709 22.9931 1.6709 22.6463C1.6709 22.4729 1.71425 22.2995 1.80096 22.1261C1.88766 21.9527 1.97437 21.8226 2.06107 21.7359C2.14778 21.6492 2.27783 21.5625 2.45125 21.4758C2.62466 21.3891 2.79807 21.3457 2.97148 21.3457H7.22003C7.39344 21.3457 7.56685 21.3891 7.74026 21.4758C7.91367 21.5625 8.04373 21.6636 8.13044 21.7792C8.21714 21.8949 8.30385 22.0249 8.39055 22.1694C8.47726 22.3139 8.52061 22.4729 8.52061 22.6463ZM43.0293 21.3457C43.2027 21.3457 43.3761 21.3891 43.5495 21.4758C43.7229 21.5625 43.853 21.6636 43.9397 21.7792C44.0264 21.8949 44.1131 22.0249 44.1998 22.1694C44.2865 22.3139 44.3299 22.4729 44.3299 22.6463C44.3299 22.9931 44.1998 23.2821 43.9397 23.5134C43.6796 23.7446 43.3761 23.8602 43.0293 23.8602H38.7807C38.4339 23.8602 38.1304 23.7446 37.8703 23.5134C37.6102 23.2821 37.4801 22.9931 37.4801 22.6463C37.4801 22.4729 37.5235 22.2995 37.6102 22.1261C37.6969 21.9527 37.7836 21.8226 37.8703 21.7359C37.957 21.6492 38.0871 21.5625 38.2605 21.4758C38.4339 21.3891 38.6073 21.3457 38.7807 21.3457H43.0293ZM11.0351 32.8775C11.6131 32.2995 12.1911 32.2995 12.7692 32.8775C13.3472 33.4555 13.3472 34.0336 12.7692 34.6116L9.64778 37.733C9.41656 37.9642 9.12755 38.0798 8.78073 38.0798C8.4339 38.0798 8.14489 37.9642 7.91367 37.733C7.33564 37.0972 7.33564 36.4902 7.91367 35.9122L11.0351 32.8775ZM34.9657 12.3284C34.7345 12.5596 34.4599 12.6752 34.142 12.6752C33.8241 12.6752 33.5206 12.5596 33.2316 12.3284C32.6536 11.7503 32.6536 11.1723 33.2316 10.5943L36.353 7.5596C36.931 6.98156 37.509 6.98156 38.0871 7.5596C38.6651 8.13763 38.6651 8.71567 38.0871 9.2937L34.9657 12.3284ZM11.0351 12.3284L7.91367 9.2937C7.33564 8.71567 7.33564 8.13763 7.91367 7.5596C8.49171 6.98156 9.06974 6.98156 9.64778 7.5596L12.7692 10.5943C13.3472 11.1723 13.3472 11.7503 12.7692 12.3284C12.4801 12.5596 12.1767 12.6752 11.8588 12.6752C11.5408 12.6752 11.2663 12.5596 11.0351 12.3284ZM34.9657 32.8775L38.0871 35.9122C38.6651 36.4902 38.6651 37.0972 38.0871 37.733C37.8559 37.9642 37.5669 38.0798 37.22 38.0798C36.8732 38.0798 36.5842 37.9642 36.353 37.733L33.2316 34.6116C32.6536 34.0336 32.6536 33.4555 33.2316 32.8775C33.8096 32.2995 34.3877 32.2995 34.9657 32.8775Z" fill="#43BAFF"/>
</g>
</svg>
