<svg width="41" height="41" viewBox="0 0 41 41" fill="none" xmlns="http://www.w3.org/2000/svg">
<g id="Component 3">
<path id="Vector" d="M39.074 17.1515C39.8447 17.3057 40.23 17.7681 40.23 18.5388V20.3885V22.2382C40.23 23.009 39.8447 23.4457 39.074 23.5485L35.3745 24.2421C35.0149 25.6294 34.4754 26.9396 33.756 28.1727L35.914 31.1785C36.3765 31.8465 36.3251 32.463 35.7599 33.0282L34.4497 34.3384L33.1395 35.6487C32.5743 36.2138 31.9834 36.2652 31.3668 35.8028L28.284 33.6448C27.1022 34.3128 25.8177 34.8266 24.4304 35.1862L23.8138 38.8856C23.6597 39.7077 23.1973 40.1188 22.4266 40.1188H20.5769H18.8042C17.9821 40.1188 17.5197 39.7077 17.4169 38.8856L16.8004 35.2633C15.3617 34.9036 14.0258 34.3898 12.7927 33.7219L9.78687 35.8799C9.11892 36.3423 8.50235 36.2909 7.93716 35.7257L6.62695 34.4155L5.31674 33.1053C4.75155 32.5401 4.70017 31.9235 5.16259 31.2556L7.32059 28.2498C6.54988 27.0167 5.98469 25.7065 5.62502 24.3192L1.9256 23.7026C1.15489 23.5998 0.769531 23.1374 0.769531 22.3153V20.5427V18.693C0.769531 17.8709 1.15489 17.4084 1.9256 17.3057L5.62502 16.6891C5.98469 15.2505 6.52419 13.9402 7.24352 12.7585L5.00845 9.67563C4.54602 9.00768 4.59741 8.4168 5.16259 7.90299L6.47281 6.59278L7.78302 5.28257C8.34821 4.71738 8.96478 4.66599 9.63273 5.12842L12.6385 7.20935C13.8717 6.43863 15.2076 5.87344 16.6462 5.51378L17.2628 1.89143C17.4169 1.06933 17.8794 0.658287 18.6501 0.658287H20.4998H22.3495C23.1202 0.658287 23.5826 1.06933 23.7368 1.89143L24.3533 5.51378C25.7406 5.87344 27.0508 6.41294 28.284 7.13227L31.2898 5.05135C31.9063 4.58892 32.5229 4.61461 33.1395 5.12842L34.4497 6.43863L35.6828 7.74885C36.248 8.31404 36.2994 8.90491 35.837 9.52149L33.756 12.6043C34.4754 13.8375 35.0149 15.1477 35.3745 16.535L39.074 17.1515ZM12.5614 28.404C12.5614 28.404 13.1138 28.9563 14.2185 30.061C15.3232 31.1657 17.4426 31.718 20.5769 31.718C23.7111 31.718 26.3829 30.6133 28.5923 28.404C30.8016 26.1946 31.9063 23.5228 31.9063 20.3885C31.9063 17.2543 30.8016 14.5825 28.5923 12.3731C26.3829 10.1637 23.7111 9.05906 20.5769 9.05906C17.4426 9.05906 14.7708 10.1766 12.5614 12.4117C10.3521 14.6467 9.24737 17.3185 9.24737 20.4271C9.24737 23.5356 10.3521 26.1946 12.5614 28.404ZM20.5769 11.6795C22.9918 11.6795 25.047 12.5273 26.7426 14.2228C28.4381 15.9184 29.2859 17.9736 29.2859 20.3885C29.2859 21.9813 28.9006 23.4457 28.1298 24.7816C27.3591 26.1175 26.3058 27.1837 24.9699 27.9801C23.634 28.7765 22.1697 29.1747 20.5769 29.1747C18.162 29.1747 16.1067 28.314 14.4111 26.5928C12.7156 24.8715 11.8678 22.8034 11.8678 20.3885C11.8678 18.025 12.7156 15.9826 14.4111 14.2614C16.1067 12.5401 18.162 11.6795 20.5769 11.6795ZM24.4304 24.4733C24.7387 24.165 24.7387 23.754 24.4304 23.2402L22.0412 20.3115C21.9384 20.2087 21.8871 20.0546 21.8871 19.849L21.5017 14.454C21.3989 13.8889 21.065 13.6063 20.4998 13.6063C19.9346 13.6063 19.6263 13.8889 19.5749 14.454L19.1125 20.3885V20.5427V20.6198C19.1125 21.0308 19.2666 21.3391 19.5749 21.5446C19.5749 21.5446 19.6263 21.6217 19.7291 21.7758L23.0431 24.5504C23.5056 24.9101 23.968 24.8844 24.4304 24.4733Z" fill="#7141B1"/>
</g>
</svg>
