<svg width="50" height="50" viewBox="0 0 50 50" fill="none" xmlns="http://www.w3.org/2000/svg">
<g id="Component 3">
<path id="Vector" d="M35.1056 12.4277C35.6836 12.4277 36.1974 12.6525 36.647 13.1021C37.0966 13.5517 37.3214 14.0976 37.3214 14.7398C37.3214 15.3821 37.0966 15.912 36.647 16.3294C36.1974 16.7469 35.6675 16.9556 35.0574 16.9556C34.4473 16.9556 33.9174 16.7469 33.4678 16.3294C33.0182 15.912 32.7934 15.3821 32.7934 14.7398C32.7934 14.3545 32.8898 14.0012 33.0824 13.6801L29.3252 9.92288C29.0041 10.1156 28.6508 10.2119 28.2655 10.2119C27.9444 10.2119 27.6553 10.1477 27.3984 10.0192L26.435 10.9826C26.8204 12.2029 27.0131 13.4553 27.0131 14.7398C27.0131 18.208 25.7767 21.1624 23.304 23.603C20.8313 26.0436 17.8609 27.2639 14.3927 27.2639C12.1447 27.2639 10.0574 26.718 8.13062 25.6262C7.74526 25.3693 7.66498 25.0321 7.88977 24.6146C8.11456 24.1971 8.45175 24.1168 8.90133 24.3737C10.5712 25.3371 12.4017 25.8188 14.3927 25.8188C17.4755 25.8188 20.1088 24.727 22.2925 22.5433C24.4762 20.3596 25.568 17.7585 25.568 14.7398C25.568 13.8407 25.4717 12.9736 25.279 12.1387L20.0767 17.341C20.2051 17.5979 20.2693 17.8869 20.2693 18.208C20.2693 18.5934 20.1569 18.9627 19.9322 19.3159C19.7074 19.6692 19.4344 19.9422 19.1133 20.1348C18.7921 20.3275 18.4068 20.4238 17.9572 20.4238C17.3149 20.4238 16.7851 20.1991 16.3676 19.7495C15.9501 19.2999 15.7414 18.7861 15.7414 18.208C15.7414 17.8227 15.8056 17.5016 15.9341 17.2447C15.8699 17.1804 15.8377 17.1483 15.8377 17.1483L11.0208 12.3314C10.6997 12.4598 10.3785 12.524 10.0574 12.524C9.67204 12.524 9.3188 12.4598 8.99767 12.3314L4.66241 16.6666C4.79086 16.9878 4.85509 17.341 4.85509 17.7264C4.85509 18.3044 4.66241 18.8182 4.27705 19.2678C4.85509 20.5523 5.65791 21.6763 6.68553 22.6396C7.00666 22.9608 7.00666 23.314 6.68553 23.6994C6.55708 23.8278 6.38046 23.8921 6.15566 23.8921C5.93087 23.8921 5.75425 23.8278 5.6258 23.6994C4.53396 22.6075 3.6669 21.3551 3.02464 19.9422C2.89619 19.9422 2.76774 19.9422 2.63929 19.9422C1.99703 19.9422 1.4511 19.7334 1.00152 19.3159C0.55194 18.8985 0.327148 18.3686 0.327148 17.7264C0.327148 16.6345 0.840957 15.8959 1.86857 15.5106C1.86857 15.2536 1.86857 14.9967 1.86857 14.7398C1.86857 11.2716 3.08887 8.31723 5.52946 5.87664C7.97005 3.43605 10.9245 2.21575 14.3927 2.21575C16.8975 2.21575 19.1775 2.89013 21.2327 4.23888C23.288 5.58762 24.8294 7.35384 25.857 9.53753L26.3387 9.05583C26.0818 8.7347 25.9534 8.34934 25.9534 7.89976C25.9534 7.2575 26.1781 6.71158 26.6277 6.262C27.0773 5.81241 27.6232 5.58762 28.2655 5.58762C28.9078 5.58762 29.4376 5.81241 29.8551 6.262C30.2726 6.71158 30.4813 7.2575 30.4813 7.89976C30.4813 8.22089 30.4171 8.54202 30.2886 8.86315L34.1422 12.6204C34.3991 12.4919 34.7202 12.4277 35.1056 12.4277ZM1.77224 17.6782C1.77224 17.6782 1.77224 17.8147 1.77224 18.0876C1.77224 18.3606 2.0452 18.4971 2.59112 18.4971C3.13704 18.4971 3.41 18.2241 3.41 17.6782C3.41 17.1323 3.13704 16.8593 2.59112 16.8593C2.0452 16.8593 1.77224 17.1323 1.77224 17.6782ZM9.19035 10.2601C9.19035 10.2601 9.19035 10.3965 9.19035 10.6695C9.19035 10.9425 9.47936 11.079 10.0574 11.079C10.6354 11.079 10.9245 10.806 10.9245 10.2601C10.9245 9.71415 10.6354 9.44118 10.0574 9.44118C9.47936 9.44118 9.19035 9.71415 9.19035 10.2601ZM17.1865 18.1599C17.1865 18.1599 17.1865 18.2964 17.1865 18.5693C17.1865 18.8423 17.4595 18.9788 18.0054 18.9788C18.5513 18.9788 18.8243 18.7058 18.8243 18.1599C18.8243 17.614 18.5513 17.341 18.0054 17.341C17.4595 17.341 17.1865 17.614 17.1865 18.1599ZM19.1133 16.1849L24.7973 10.5973C24.2192 9.24851 23.4164 8.04427 22.3888 6.98454C21.3612 5.92481 20.1569 5.10593 18.7761 4.52789C17.3952 3.94986 15.9341 3.66084 14.3927 3.66084C11.374 3.66084 8.77288 4.73663 6.58919 6.8882C4.4055 9.03977 3.31366 11.657 3.31366 14.7398C3.31366 14.9967 3.31366 15.2858 3.31366 15.6069C3.44211 15.6069 3.53845 15.639 3.60268 15.7032L8.03428 11.2716C7.8416 10.9505 7.74526 10.5973 7.74526 10.2119C7.74526 9.82654 7.85766 9.45724 8.08245 9.104C8.30724 8.75076 8.59626 8.47779 8.9495 8.28512C9.30274 8.09244 9.67204 7.9961 10.0574 7.9961C10.6997 7.9961 11.2456 8.22089 11.6952 8.67048C12.1447 9.12006 12.3695 9.63387 12.3695 10.2119C12.3695 10.5973 12.2732 10.9826 12.0805 11.368L16.8975 16.1849C17.2186 15.9922 17.5718 15.8959 17.9572 15.8959C18.4068 15.8959 18.7921 15.9922 19.1133 16.1849ZM27.3984 7.89976C27.3984 7.89976 27.3984 8.04427 27.3984 8.33329C27.3984 8.6223 27.6714 8.76681 28.2173 8.76681C28.7632 8.76681 29.0362 8.47779 29.0362 7.89976C29.0362 7.32173 28.7632 7.03271 28.2173 7.03271C27.6714 7.03271 27.3984 7.32173 27.3984 7.89976ZM34.2385 14.6917C34.2385 14.6917 34.2385 14.8281 34.2385 15.1011C34.2385 15.3741 34.5115 15.5106 35.0574 15.5106C35.6033 15.5106 35.8763 15.2376 35.8763 14.6917C35.8763 14.1457 35.6033 13.8728 35.0574 13.8728C34.5115 13.8728 34.2385 14.1457 34.2385 14.6917ZM48.8821 46.4354C49.3959 46.4354 49.6528 46.6763 49.6528 47.1579C49.6528 47.6396 49.3959 47.8805 48.8821 47.8805H1.77224C1.25843 47.8805 1.00152 47.6396 1.00152 47.1579C1.00152 46.6763 1.25843 46.4354 1.77224 46.4354H7.26356V35.2601C7.26356 34.8105 7.48836 34.5857 7.93794 34.5857H12.1769C12.6907 34.5857 12.9476 34.8105 12.9476 35.2601V46.4354H14.3927V42.3892C14.3927 41.9396 14.6335 41.7148 15.1152 41.7148C15.5969 41.7148 15.8377 41.9396 15.8377 42.3892V46.4354H18.6316V36.0308H15.8377V39.499C15.8377 39.9486 15.5969 40.1734 15.1152 40.1734C14.6335 40.1734 14.3927 39.9486 14.3927 39.499V35.2601C14.3927 34.8105 14.6496 34.5857 15.1634 34.5857H19.306C19.8198 34.5857 20.0767 34.8105 20.0767 35.2601V46.4354H21.5218V31.7919C21.5218 31.2781 21.7787 31.0211 22.2925 31.0211H26.5314C26.981 31.0211 27.2058 31.2781 27.2058 31.7919V46.4354H28.6508V26.4932C28.6508 26.0436 28.9078 25.8188 29.4216 25.8188H33.6605C34.1101 25.8188 34.3349 26.0436 34.3349 26.4932V46.4354H35.7799V21.0982C35.7799 20.5844 36.0368 20.3275 36.5507 20.3275H40.7896C41.2392 20.3275 41.464 20.5844 41.464 21.0982V46.4354H42.909V14.7398C42.909 14.226 43.1659 13.9691 43.6797 13.9691H47.9187C48.3683 13.9691 48.593 14.226 48.593 14.7398V27.7456C48.593 28.1952 48.3522 28.42 47.8705 28.42C47.3888 28.42 47.148 28.1952 47.148 27.7456V15.4142H44.3541V46.4354H47.148V30.6358C47.148 30.1862 47.3888 29.9614 47.8705 29.9614C48.3522 29.9614 48.593 30.1862 48.593 30.6358V46.4354H48.8821ZM11.5025 46.4354V36.0308H8.70865V46.4354H11.5025ZM25.7607 46.4354V32.4662H22.9668V46.4354H25.7607ZM32.8898 46.4354V27.2639H30.0959V46.4354H32.8898ZM40.0189 46.4354V21.7726H37.225V46.4354H40.0189ZM47.148 4.0462C47.148 3.59661 47.3888 3.37182 47.8705 3.37182C48.3522 3.37182 48.593 3.59661 48.593 4.0462V4.23888C48.593 4.68846 48.3522 4.91325 47.8705 4.91325C47.3888 4.91325 47.148 4.68846 47.148 4.23888V4.0462ZM44.7395 4.0462C44.7395 3.59661 44.9803 3.37182 45.462 3.37182C45.9437 3.37182 46.1846 3.59661 46.1846 4.0462V4.23888C46.1846 4.68846 45.9437 4.91325 45.462 4.91325C44.9803 4.91325 44.7395 4.68846 44.7395 4.23888V4.0462ZM47.9187 6.35833C48.3683 6.35833 48.593 6.59918 48.593 7.08088C48.593 7.56257 48.3683 7.80342 47.9187 7.80342H45.4139C44.9643 7.80342 44.7395 7.56257 44.7395 7.08088C44.7395 6.59918 44.9643 6.35833 45.4139 6.35833H47.9187ZM47.9187 8.76681C48.3683 8.76681 48.593 9.00766 48.593 9.48936C48.593 9.97105 48.3683 10.2119 47.9187 10.2119H41.3676C40.8538 10.2119 40.5969 9.97105 40.5969 9.48936C40.5969 9.00766 40.8538 8.76681 41.3676 8.76681H47.9187Z" fill="#1B1D21"/>
</g>
</svg>
