<svg width="41" height="41" viewBox="0 0 41 41" fill="none" xmlns="http://www.w3.org/2000/svg">
<g id="Component 3">
<path id="Vector" d="M38.072 17.4598C38.6886 17.6654 39.2024 18.0379 39.6135 18.5774C40.0245 19.1169 40.23 19.7206 40.23 20.3885C40.23 21.262 39.9217 21.9942 39.3052 22.5851C38.6886 23.176 37.9564 23.4714 37.1086 23.4714C36.2609 23.4714 35.5415 23.176 34.9506 22.5851C34.3598 21.9942 34.0643 21.262 34.0643 20.3885C34.0643 19.1554 34.6295 18.2305 35.7599 17.614C35.1947 14.4284 33.756 11.7052 31.4439 9.44441C29.2345 7.23504 26.6141 5.82206 23.5826 5.20549V6.82399H17.4169V5.20549C14.3855 5.82206 11.765 7.23504 9.55566 9.44441C7.24352 11.7052 5.80486 14.4284 5.23967 17.614C6.37005 18.2305 6.93524 19.1554 6.93524 20.3885C6.93524 21.262 6.63979 21.9942 6.04891 22.5851C5.45803 23.176 4.7387 23.4714 3.89092 23.4714C3.04313 23.4714 2.31096 23.176 1.69439 22.5851C1.07782 21.9942 0.769531 21.262 0.769531 20.3885C0.769531 19.7206 0.975055 19.1169 1.3861 18.5774C1.79715 18.0379 2.31096 17.6654 2.92753 17.4598C3.59548 13.709 5.26536 10.4977 7.93716 7.82592C10.5576 5.15411 13.7175 3.50993 17.4169 2.89336V0.658287H23.5826V2.89336C27.2821 3.50993 30.442 5.15411 33.0624 7.82592C35.7342 10.4977 37.4041 13.709 38.072 17.4598ZM15.8755 33.7989H25.1241V40.1188H15.8755V33.7989ZM29.0547 24.3962L25.3553 31.4868H15.6443L11.9449 24.3962L19.3437 12.5273V22.7777C18.162 23.2402 17.5711 24.1393 17.5711 25.4752C17.5711 26.2973 17.8537 26.991 18.4189 27.5562C18.984 28.1214 19.6777 28.404 20.4998 28.404C21.3219 28.404 22.0155 28.1214 22.5807 27.5562C23.1459 26.991 23.4285 26.2973 23.4285 25.4752C23.4285 24.1393 22.8376 23.2402 21.6559 22.7777V12.5273L29.0547 24.3962ZM19.8832 25.4367C19.8832 25.4367 19.8832 25.3275 19.8832 25.1092C19.8832 24.8908 20.0887 24.7816 20.4998 24.7816C20.9108 24.7816 21.1164 25 21.1164 25.4367C21.1164 25.8734 20.9108 26.0918 20.4998 26.0918C20.0887 26.0918 19.8832 25.8734 19.8832 25.4367Z" fill="#43BAFF"/>
</g>
</svg>
