<svg width="51" height="50" viewBox="0 0 51 50" fill="none" xmlns="http://www.w3.org/2000/svg">
<g id="Component 3">
<path id="Vector" d="M48.0223 3.75722C48.7288 3.75722 49.339 4.01413 49.8528 4.52793C50.3666 5.04174 50.6235 5.65189 50.6235 6.35838V44.7013C50.6235 45.1509 50.4629 45.5363 50.1418 45.8574C49.8207 46.1785 49.4353 46.3391 48.9857 46.3391H2.93562C2.48603 46.3391 2.10068 46.1785 1.77955 45.8574C1.45842 45.5363 1.29785 45.1509 1.29785 44.7013V6.35838C1.29785 5.65189 1.55476 5.04174 2.06856 4.52793C2.58237 4.01413 3.19252 3.75722 3.89901 3.75722H12.4732C12.987 3.75722 13.2439 3.99807 13.2439 4.47976C13.2439 4.96146 12.987 5.2023 12.4732 5.2023H3.89901C3.57788 5.2023 3.30492 5.3147 3.08013 5.53949C2.85533 5.76429 2.74294 6.03725 2.74294 6.35838V10.9827C15.9735 10.9184 29.172 10.9184 42.3383 10.9827C42.8521 10.9827 43.109 11.2235 43.109 11.7052C43.109 12.1869 42.8521 12.4277 42.3383 12.4277C29.172 12.3635 15.9735 12.3635 2.74294 12.4277V44.7013C2.74294 44.8298 2.80716 44.894 2.93562 44.894H48.9857C49.1142 44.894 49.1784 44.8298 49.1784 44.7013V12.4277C47.9581 12.3635 46.7699 12.3635 45.6138 12.4277C45.1 12.4277 44.8431 12.1869 44.8431 11.7052C44.8431 11.2235 45.0679 10.9827 45.5175 10.9827C46.7378 10.9184 47.9581 10.9184 49.1784 10.9827V6.35838C49.1784 6.03725 49.066 5.76429 48.8412 5.53949C48.6164 5.3147 48.3435 5.2023 48.0223 5.2023H15.4597C14.9459 5.2023 14.689 4.96146 14.689 4.47976C14.689 3.99807 14.9459 3.75722 15.4597 3.75722H48.0223ZM34.2458 7.51445C34.6954 7.51445 34.9202 7.75529 34.9202 8.23699C34.9202 8.71869 34.6954 8.95953 34.2458 8.95953H8.42695C7.97736 8.95953 7.75257 8.71869 7.75257 8.23699C7.75257 7.75529 7.97736 7.51445 8.42695 7.51445H34.2458ZM36.9433 7.99614C36.9433 7.54656 37.1842 7.32177 37.6659 7.32177C38.1476 7.32177 38.3884 7.54656 38.3884 7.99614V8.18882C38.3884 8.6384 38.1476 8.86319 37.6659 8.86319C37.1842 8.86319 36.9433 8.6384 36.9433 8.18882V7.99614ZM39.8335 7.99614C39.8335 7.54656 40.0743 7.32177 40.556 7.32177C41.0377 7.32177 41.2786 7.54656 41.2786 7.99614V8.18882C41.2786 8.6384 41.0377 8.86319 40.556 8.86319C40.0743 8.86319 39.8335 8.6384 39.8335 8.18882V7.99614ZM42.7237 7.99614C42.7237 7.54656 42.9645 7.32177 43.4462 7.32177C43.9279 7.32177 44.1688 7.54656 44.1688 7.99614V8.18882C44.1688 8.6384 43.9279 8.86319 43.4462 8.86319C42.9645 8.86319 42.7237 8.6384 42.7237 8.18882V7.99614ZM12.0878 35.4528C12.0878 35.0032 12.3287 34.7784 12.8104 34.7784C13.2921 34.7784 13.5329 35.0032 13.5329 35.4528V35.5491C13.5329 36.0629 13.2921 36.3198 12.8104 36.3198C12.3287 36.3198 12.0878 36.0629 12.0878 35.5491V35.4528ZM14.978 35.4528C14.978 35.0032 15.2189 34.7784 15.7005 34.7784C16.1822 34.7784 16.4231 35.0032 16.4231 35.4528V35.5491C16.4231 36.0629 16.1822 36.3198 15.7005 36.3198C15.2189 36.3198 14.978 36.0629 14.978 35.5491V35.4528ZM32.8007 20.1349C33.2503 20.1349 33.4751 20.3757 33.4751 20.8574C33.4751 21.3391 33.2503 21.58 32.8007 21.58H19.9876C19.5381 21.58 19.3133 21.3391 19.3133 20.8574C19.3133 20.3757 19.5381 20.1349 19.9876 20.1349H32.8007ZM29.2362 23.3141C29.6858 23.3141 29.9106 23.5549 29.9106 24.0366C29.9106 24.5183 29.6858 24.7591 29.2362 24.7591H23.5522C23.0384 24.7591 22.7815 24.5183 22.7815 24.0366C22.7815 23.5549 23.0384 23.3141 23.5522 23.3141H29.2362ZM38.9664 34.7784C39.4803 34.7784 39.7372 35.0193 39.7372 35.501C39.7372 35.9827 39.4803 36.2235 38.9664 36.2235H36.9433C36.4937 36.2235 36.269 35.9827 36.269 35.501C36.269 35.0193 36.4937 34.7784 36.9433 34.7784H38.9664ZM39.7372 27.553C40.5079 27.553 41.1662 27.8259 41.7121 28.3719C42.258 28.9178 42.531 29.5761 42.531 30.3468C42.531 31.1175 42.258 31.7598 41.7121 32.2736C41.1662 32.7874 40.5079 33.0443 39.7372 33.0443H23.9375C23.4237 33.0443 23.1668 32.8035 23.1668 32.3218C23.1668 31.8401 23.4237 31.5992 23.9375 31.5992H39.7372C40.1225 31.5992 40.4436 31.4708 40.7006 31.2139C40.9575 30.957 41.0859 30.6519 41.0859 30.2986C41.0859 29.9454 40.9575 29.6403 40.7006 29.3834C40.4436 29.1265 40.1225 28.9981 39.7372 28.9981H13.0512C12.6659 28.9981 12.3447 29.1265 12.0878 29.3834C11.8309 29.6403 11.7025 29.9454 11.7025 30.2986C11.7025 30.6519 11.8309 30.957 12.0878 31.2139C12.3447 31.4708 12.6659 31.5992 13.0512 31.5992H20.951C21.4648 31.5992 21.7217 31.8401 21.7217 32.3218C21.7217 32.8035 21.4648 33.0443 20.951 33.0443H13.0512C12.2805 33.0443 11.6222 32.7874 11.0763 32.2736C10.5303 31.7598 10.2574 31.1175 10.2574 30.3468C10.2574 29.5761 10.5303 28.9178 11.0763 28.3719C11.6222 27.8259 12.2805 27.553 13.0512 27.553H39.7372Z" fill="#00D444"/>
</g>
</svg>
