<svg width="50" height="50" viewBox="0 0 50 50" fill="none" xmlns="http://www.w3.org/2000/svg">
<g id="Component 3">
<path id="Vector" d="M36.4549 0.385311C37.354 0.385311 38.1408 0.70644 38.8152 1.3487C39.4896 1.99096 39.8267 2.79379 39.8267 3.75718V46.3391C39.8267 47.3025 39.4896 48.1053 38.8152 48.7475C38.1408 49.3898 37.354 49.7109 36.4549 49.7109H18.4395C17.9257 49.7109 17.6687 49.4701 17.6687 48.9884C17.6687 48.5067 17.9257 48.2659 18.4395 48.2659H36.4549C36.9687 48.2659 37.4183 48.0732 37.8036 47.6878C38.189 47.3025 38.3817 46.8529 38.3817 46.3391V43.3526H11.5994V46.3391C11.5994 46.8529 11.7921 47.3025 12.1774 47.6878C12.5628 48.0732 13.0124 48.2659 13.5262 48.2659H15.4529C15.9668 48.2659 16.2237 48.5067 16.2237 48.9884C16.2237 49.4701 15.9668 49.7109 15.4529 49.7109H13.5262C12.627 49.7109 11.8402 49.3898 11.1659 48.7475C10.4915 48.1053 10.1543 47.3025 10.1543 46.3391V35.0674C10.1543 34.5536 10.3951 34.2967 10.8768 34.2967C11.3585 34.2967 11.5994 34.5536 11.5994 35.0674V41.9075H13.8152V25.3371C13.8152 24.8233 14.056 24.5664 14.5377 24.5664C15.0194 24.5664 15.2603 24.8233 15.2603 25.3371V41.9075H22.9674V14.2581H15.3566C15.2924 14.2581 15.2603 14.2581 15.2603 14.2581V22.3506C15.2603 22.8644 15.0194 23.1213 14.5377 23.1213C14.056 23.1213 13.8152 22.8644 13.8152 22.3506V14.2581C13.8152 13.8728 13.9597 13.5356 14.2487 13.2466C14.5377 12.9576 14.907 12.8131 15.3566 12.8131H22.9674C23.3528 12.8131 23.6899 12.9576 23.979 13.2466C24.268 13.5356 24.4125 13.8728 24.4125 14.2581V41.9075H38.3817V8.18878H11.5994V32.0809C11.5994 32.5947 11.3585 32.8516 10.8768 32.8516C10.3951 32.8516 10.1543 32.5947 10.1543 32.0809V3.75718C10.1543 2.79379 10.4915 1.99096 11.1659 1.3487C11.8402 0.70644 12.627 0.385311 13.5262 0.385311H36.4549ZM38.3817 6.74369V3.75718C38.3817 3.24337 38.189 2.79379 37.8036 2.40843C37.4183 2.02308 36.9687 1.8304 36.4549 1.8304H13.5262C13.0124 1.8304 12.5628 2.02308 12.1774 2.40843C11.7921 2.79379 11.5994 3.24337 11.5994 3.75718V6.74369H38.3817ZM26.0503 3.5645C26.4998 3.5645 26.7246 3.80535 26.7246 4.28704C26.7246 4.76874 26.4998 5.00959 26.0503 5.00959H18.7285C18.2147 5.00959 17.9578 4.76874 17.9578 4.28704C17.9578 3.80535 18.2147 3.5645 18.7285 3.5645H26.0503ZM30.5782 4.23888C30.5782 3.72507 30.819 3.46816 31.3007 3.46816C31.7824 3.46816 32.0233 3.72507 32.0233 4.23888V4.33522C32.0233 4.84902 31.7824 5.10593 31.3007 5.10593C30.819 5.10593 30.5782 4.84902 30.5782 4.33522V4.23888ZM28.5551 4.23888C28.5551 3.72507 28.7959 3.46816 29.2776 3.46816C29.7593 3.46816 30.0002 3.72507 30.0002 4.23888V4.33522C30.0002 4.84902 29.7593 5.10593 29.2776 5.10593C28.7959 5.10593 28.5551 4.84902 28.5551 4.33522V4.23888ZM27.0136 45.0867C27.5275 45.0867 27.7844 45.3275 27.7844 45.8092C27.7844 46.2909 27.5275 46.5317 27.0136 46.5317H22.9674C22.4536 46.5317 22.1967 46.2909 22.1967 45.8092C22.1967 45.3275 22.4536 45.0867 22.9674 45.0867H27.0136ZM34.9134 12.7167C35.2988 12.7167 35.636 12.8773 35.925 13.1984C36.214 13.5195 36.3585 13.8728 36.3585 14.2581V21.3872C36.3585 21.7726 36.214 22.1098 35.925 22.3988C35.636 22.6878 35.2988 22.8323 34.9134 22.8323H27.7844C27.399 22.8323 27.0458 22.6878 26.7246 22.3988C26.4035 22.1098 26.2429 21.7726 26.2429 21.3872V14.2581C26.2429 13.8728 26.4035 13.5195 26.7246 13.1984C27.0458 12.8773 27.399 12.7167 27.7844 12.7167H34.9134ZM34.9134 21.3872V14.2581C34.9134 14.1939 34.9134 14.1618 34.9134 14.1618H27.7844C27.7201 14.1618 27.688 14.1939 27.688 14.2581V21.3872C27.688 21.3872 27.7201 21.3872 27.7844 21.3872H34.9134ZM34.9134 24.3738C35.2988 24.3738 35.636 24.5183 35.925 24.8073C36.214 25.0963 36.3585 25.4656 36.3585 25.9152V27.7456C36.3585 28.1952 36.214 28.5645 35.925 28.8535C35.636 29.1425 35.2988 29.287 34.9134 29.287H27.7844C27.5275 29.287 27.2866 29.2228 27.0618 29.0944C26.837 28.9659 26.6443 28.7732 26.4838 28.5163C26.3232 28.2594 26.2429 28.0025 26.2429 27.7456V25.9152C26.2429 25.4656 26.4035 25.0963 26.7246 24.8073C27.0458 24.5183 27.399 24.3738 27.7844 24.3738H34.9134ZM34.9134 27.7456V25.9152C34.9134 25.851 34.9134 25.8188 34.9134 25.8188H27.7844C27.7201 25.8188 27.688 25.851 27.688 25.9152V27.7456C27.688 27.8098 27.7201 27.842 27.7844 27.842H34.9134C34.9134 27.842 34.9134 27.8098 34.9134 27.7456ZM35.6842 30.9248C36.1337 30.9248 36.3585 31.1657 36.3585 31.6474C36.3585 32.129 36.1337 32.3699 35.6842 32.3699H27.0136C26.4998 32.3699 26.2429 32.129 26.2429 31.6474C26.2429 31.1657 26.4998 30.9248 27.0136 30.9248H35.6842ZM35.6842 33.526C36.1337 33.526 36.3585 33.7668 36.3585 34.2485C36.3585 34.7302 36.1337 34.9711 35.6842 34.9711H27.0136C26.4998 34.9711 26.2429 34.7302 26.2429 34.2485C26.2429 33.7668 26.4998 33.526 27.0136 33.526H35.6842ZM35.6842 36.1271C36.1337 36.1271 36.3585 36.368 36.3585 36.8497C36.3585 37.3314 36.1337 37.5722 35.6842 37.5722H27.0136C26.4998 37.5722 26.2429 37.3314 26.2429 36.8497C26.2429 36.368 26.4998 36.1271 27.0136 36.1271H35.6842ZM35.6842 38.8246C36.1337 38.8246 36.3585 39.0655 36.3585 39.5472C36.3585 40.0289 36.1337 40.2697 35.6842 40.2697H27.0136C26.4998 40.2697 26.2429 40.0289 26.2429 39.5472C26.2429 39.0655 26.4998 38.8246 27.0136 38.8246H35.6842ZM33.661 19.2678C33.8537 19.7174 33.7253 20.0545 33.2757 20.2793C32.8261 20.5041 32.505 20.3917 32.3123 19.9422L32.216 19.6531H30.3855L30.1928 19.9422C30.0644 20.1991 29.8396 20.3275 29.5185 20.3275C29.4542 20.3275 29.3579 20.2954 29.2294 20.2312C28.7799 20.0385 28.6514 19.7174 28.8441 19.2678L30.5782 15.7032C30.7066 15.4463 30.9314 15.3179 31.2526 15.3179C31.5737 15.3179 31.7985 15.4463 31.9269 15.7032L33.661 19.2678ZM31.0599 18.208H31.5416L31.2526 17.7264L31.0599 18.208Z" fill="#1B1D21"/>
</g>
</svg>
