<svg width="35" height="35" viewBox="0 0 35 35" fill="none" xmlns="http://www.w3.org/2000/svg">
<g id="Component 3">
<path id="Vector" d="M34.0899 14.3641C34.5395 14.3641 34.7643 14.5889 34.7643 15.0385V34.1232C34.7643 34.5728 34.5395 34.7976 34.0899 34.7976H2.25945C1.71995 34.7976 1.24789 34.5953 0.843265 34.1907C0.43864 33.786 0.236328 33.314 0.236328 32.7745V2.29279C0.236328 1.75329 0.43864 1.28123 0.843265 0.876606C1.24789 0.471981 1.71995 0.269669 2.25945 0.269669H20.3327C20.5125 0.269669 20.6699 0.337105 20.8047 0.471981L27.2787 6.94597C27.4136 7.08084 27.481 7.2382 27.481 7.41803V16.3872C27.481 16.8368 27.2562 17.0616 26.8067 17.0616C26.3571 17.0616 26.1323 16.8368 26.1323 16.3872V8.09241H21.6814C21.1419 8.09241 20.6699 7.89009 20.2652 7.48547C19.8606 7.08084 19.6583 6.60878 19.6583 6.06928V1.61842H2.25945C1.80987 1.61842 1.58508 1.84321 1.58508 2.29279V32.7745C1.58508 33.2241 1.80987 33.4489 2.25945 33.4489H8.05906V28.0539C8.05906 27.6043 8.28386 27.3795 8.73344 27.3795H13.0494C13.499 27.3795 13.7238 27.6043 13.7238 28.0539V33.4489H15.0726V24.2099C15.0726 23.7604 15.2973 23.5356 15.7469 23.5356H20.0629C20.5125 23.5356 20.7373 23.7604 20.7373 24.2099V33.4489H22.086V19.4893C22.086 19.0397 22.3108 18.8149 22.7604 18.8149H27.0764C27.526 18.8149 27.7508 19.0397 27.7508 19.4893V33.4489H29.0995V23.4681C29.0995 23.0185 29.3243 22.7938 29.7739 22.7938C30.2235 22.7938 30.4483 23.0185 30.4483 23.4681V33.4489H31.9319H33.4155V15.7128H30.4483V18.4103C30.4483 18.8599 30.2235 19.0847 29.7739 19.0847C29.3243 19.0847 29.0995 18.8599 29.0995 18.4103V15.0385C29.0995 14.5889 29.3243 14.3641 29.7739 14.3641H34.0899ZM21.007 2.56254V6.06928C21.007 6.51887 21.2318 6.74366 21.6814 6.74366H25.1882L21.007 2.56254ZM12.3751 33.4489V28.7282H9.40781V33.4489H12.3751ZM19.3885 33.4489V24.8843H16.4213V33.4489H19.3885ZM26.402 33.4489V20.1637H23.4348V33.4489H26.402ZM29.7739 20.1637C29.7739 20.1637 29.8189 20.1637 29.9088 20.1637C29.9987 20.1637 30.1111 20.2311 30.246 20.366C30.3808 20.5009 30.4483 20.6582 30.4483 20.8381C30.4483 21.0179 30.3808 21.1753 30.246 21.3101C30.1111 21.445 29.9537 21.5124 29.7739 21.5124C29.5941 21.5124 29.4367 21.445 29.3018 21.3101C29.167 21.1753 29.0995 21.0179 29.0995 20.8381C29.0995 20.6582 29.167 20.5009 29.3018 20.366C29.4367 20.2311 29.5941 20.1637 29.7739 20.1637ZM10.0822 3.97873C12.2851 3.97873 14.1734 4.76549 15.7469 6.33903C17.3205 7.91257 18.1072 9.80082 18.1072 12.0038C18.1072 12.4534 17.8824 12.6781 17.4329 12.6781H16.219C16.0392 14.2517 15.3648 15.5667 14.1959 16.6232C13.027 17.6798 11.6557 18.208 10.0822 18.208C8.37377 18.208 6.91263 17.6011 5.69876 16.3872C4.48488 15.1733 3.87795 13.7122 3.87795 12.0038C3.87795 10.4302 4.40621 9.04777 5.46273 7.85637C6.51924 6.66498 7.83427 6.00185 9.40781 5.86697V4.6531C9.40781 4.20352 9.6326 3.97873 10.0822 3.97873ZM10.0822 16.8593C11.2961 16.8593 12.3526 16.4659 13.2517 15.6791C14.1509 14.8923 14.6904 13.892 14.8702 12.6781H10.0822C9.6326 12.6781 9.40781 12.4534 9.40781 12.0038V7.21572C8.59856 7.30564 7.87923 7.57538 7.24982 8.02497C6.6204 8.47455 6.12586 9.04777 5.76619 9.74462C5.40653 10.4415 5.22669 11.1945 5.22669 12.0038C5.22669 13.3525 5.69876 14.499 6.64288 15.4431C7.587 16.3872 8.73344 16.8593 10.0822 16.8593ZM10.7566 11.3294H16.7585C16.5787 9.75586 15.9268 8.40711 14.8028 7.28316C13.6788 6.1592 12.3301 5.50731 10.7566 5.32747V11.3294ZM17.4329 20.0963C17.8824 20.0963 18.1072 20.321 18.1072 20.7706C18.1072 21.2202 17.8824 21.445 17.4329 21.445H4.55232C4.10274 21.445 3.87795 21.2202 3.87795 20.7706C3.87795 20.321 4.10274 20.0963 4.55232 20.0963H17.4329ZM8.86831 23.3333C9.31789 23.3333 9.54269 23.558 9.54269 24.0076C9.54269 24.4572 9.31789 24.682 8.86831 24.682H4.55232C4.10274 24.682 3.87795 24.4572 3.87795 24.0076C3.87795 23.558 4.10274 23.3333 4.55232 23.3333H8.86831ZM12.2402 23.3333C12.2402 23.3333 12.2851 23.3333 12.3751 23.3333C12.465 23.3333 12.5774 23.4007 12.7122 23.5356C12.8471 23.6704 12.9146 23.839 12.9146 24.0413C12.9146 24.2437 12.8471 24.401 12.7122 24.5134C12.5774 24.6258 12.42 24.682 12.2402 24.682C12.0603 24.682 11.903 24.6258 11.7681 24.5134C11.6332 24.401 11.5658 24.2437 11.5658 24.0413C11.5658 23.839 11.6332 23.6704 11.7681 23.5356C11.903 23.4007 12.0603 23.3333 12.2402 23.3333Z" fill="white"/>
</g>
</svg>
