<svg width="35" height="35" viewBox="0 0 35 35" fill="none" xmlns="http://www.w3.org/2000/svg">
<g id="Component 1">
<path id="Vector" d="M33.0109 17.5338C33.5054 17.5338 33.9213 17.7024 34.2585 18.0396C34.5957 18.3768 34.7643 18.7926 34.7643 19.2872V30.7515C34.7643 31.2461 34.5957 31.6619 34.2585 31.9991C33.9213 32.3363 33.5054 32.5049 33.0109 32.5049H28.4252C27.9756 32.5049 27.5822 32.3363 27.245 31.9991C26.9078 31.6619 26.7392 31.2461 26.7392 30.7515V25.5588H19.7932V29.0656H21.5465C22.3108 29.0656 22.974 29.3466 23.5359 29.9085C24.0979 30.4705 24.3789 31.1337 24.3789 31.8979C24.3789 32.3026 24.1991 32.5049 23.8394 32.5049H1.9897C1.49516 32.5049 1.0793 32.3363 0.742108 31.9991C0.404922 31.6619 0.236328 31.2461 0.236328 30.7515V15.7804C0.236328 15.3308 0.404922 14.9374 0.742108 14.6003C1.0793 14.2631 1.49516 14.0945 1.9897 14.0945H2.5292V5.46249C2.5292 4.65324 2.81019 3.96763 3.37217 3.40565C3.93414 2.84368 4.61976 2.56269 5.42901 2.56269H29.5716C30.3808 2.56269 31.0665 2.84368 31.6284 3.40565C32.1904 3.96763 32.4714 4.65324 32.4714 5.46249V17.5338H33.0109ZM12.9146 30.7515V30.212H1.38276V30.7515C1.38276 31.1561 1.58508 31.3584 1.9897 31.3584H12.3076C12.7122 31.3584 12.9146 31.1561 12.9146 30.7515ZM12.9146 29.0656V15.7804C12.9146 15.4207 12.7122 15.2409 12.3076 15.2409H1.9897C1.58508 15.2409 1.38276 15.4207 1.38276 15.7804V29.0656H12.9146ZM21.5465 30.212H14.061V30.7515C14.061 30.9763 14.016 31.1786 13.9261 31.3584H23.165C22.8953 30.5942 22.3558 30.212 21.5465 30.212ZM14.061 29.0656H15.2074V25.5588H14.061V29.0656ZM16.3539 29.0656H18.6467V25.5588H16.3539V29.0656ZM26.7392 24.4124V20.9731H14.061V24.4124H26.7392ZM26.7392 19.2872C26.7392 18.7926 26.9078 18.3768 27.245 18.0396C27.5822 17.7024 27.9756 17.5338 28.4252 17.5338H31.325V5.46249C31.325 4.96795 31.1564 4.55209 30.8192 4.2149C30.482 3.87771 30.0661 3.70912 29.5716 3.70912H5.42901C4.93447 3.70912 4.5186 3.87771 4.18141 4.2149C3.84423 4.55209 3.67563 4.96795 3.67563 5.46249V14.0945H12.3076C12.5774 14.0945 12.8246 14.1394 13.0494 14.2294V14.1619L18.7816 8.49718C19.0514 8.22743 19.3211 8.22743 19.5909 8.49718C19.8606 8.76693 19.8606 9.03667 19.5909 9.30642L13.8587 15.0386C13.9936 15.2634 14.061 15.5107 14.061 15.7804V19.8267H26.7392V19.2872ZM33.6178 30.7515V30.212H27.8857V30.7515C27.8857 31.1561 28.0655 31.3584 28.4252 31.3584H33.0109C33.4155 31.3584 33.6178 31.1561 33.6178 30.7515ZM33.6178 29.0656V19.2872C33.6178 18.8825 33.4155 18.6802 33.0109 18.6802H28.4252C28.0655 18.6802 27.8857 18.8825 27.8857 19.2872V29.0656H33.6178ZM7.11494 21.108C7.06998 21.1979 7.06998 21.3328 7.11494 21.5126C7.1599 21.6924 7.1599 21.8273 7.11494 21.9172L4.6872 24.345C4.37249 24.6147 4.0915 24.6147 3.84423 24.345C3.59696 24.0752 3.6082 23.8055 3.87795 23.5357L6.30569 21.108C6.57544 20.8382 6.84519 20.8382 7.11494 21.108ZM10.5542 21.108C10.824 21.3777 10.824 21.6475 10.5542 21.9172L8.1265 24.345C7.85675 24.6147 7.587 24.6147 7.31725 24.345C7.0475 24.0752 7.0475 23.8055 7.31725 23.5357L9.745 21.108C10.0147 20.8382 10.2845 20.8382 10.5542 21.108ZM23.0976 8.49718C23.3673 8.76693 23.3673 9.03667 23.0976 9.30642L17.3654 15.0386C17.0957 15.3084 16.8259 15.2971 16.5562 15.0049C16.2864 14.7127 16.2864 14.4317 16.5562 14.1619L22.2884 8.49718C22.5581 8.22743 22.8279 8.22743 23.0976 8.49718ZM31.9319 22.659C32.2016 22.9288 32.2016 23.1985 31.9319 23.4683L30.3134 25.0868C30.0436 25.3565 29.7739 25.3565 29.5042 25.0868C29.2344 24.817 29.2344 24.5473 29.5042 24.2775L31.1226 22.659C31.3924 22.3893 31.6621 22.3893 31.9319 22.659ZM16.9608 22.6927C16.9608 22.6927 16.9608 22.5972 16.9608 22.4061C16.9608 22.2151 17.1519 22.1195 17.534 22.1195C17.9162 22.1195 18.1072 22.3106 18.1072 22.6927C18.1072 23.0749 17.9162 23.266 17.534 23.266C17.1519 23.266 16.9608 23.0749 16.9608 22.6927ZM18.6467 4.85556C19.0514 4.85556 19.2537 5.04663 19.2537 5.42877C19.2537 5.81092 19.0514 6.00199 18.6467 6.00199H16.3539C15.9492 6.00199 15.7469 5.81092 15.7469 5.42877C15.7469 5.04663 15.9492 4.85556 16.3539 4.85556H18.6467Z" fill="white"/>
</g>
</svg>
