<svg width="51" height="50" viewBox="0 0 51 50" fill="none" xmlns="http://www.w3.org/2000/svg">
<g id="Component 3">
<path id="Vector" d="M46.4041 2.79382C47.5602 2.79382 48.5557 3.21129 49.3906 4.04623C50.2255 4.88117 50.643 5.87667 50.643 7.03274V26.3969C50.643 26.8465 50.4022 27.0713 49.9205 27.0713C49.4388 27.0713 49.1979 26.8465 49.1979 26.3969V7.03274C49.1979 6.26203 48.925 5.60371 48.379 5.05779C47.8331 4.51187 47.1748 4.23891 46.4041 4.23891H41.3945C40.8806 4.23891 40.6237 3.99806 40.6237 3.51636C40.6237 3.03467 40.8806 2.79382 41.3945 2.79382H46.4041ZM49.1979 29.2871C49.1979 28.8375 49.4388 28.6127 49.9205 28.6127C50.4022 28.6127 50.643 28.8375 50.643 29.2871V37.3796C50.643 38.0218 50.4182 38.5677 49.9686 39.0173C49.5191 39.4669 48.9731 39.6917 48.3309 39.6917H32.5313C33.1735 41.8112 34.2654 43.481 35.8068 44.7013C36.3848 45.0867 36.5614 45.6166 36.3367 46.2909C36.1119 46.9653 35.6462 47.3025 34.9397 47.3025H17.0207C16.3142 47.3025 15.8485 46.9653 15.6237 46.2909C15.3989 45.6166 15.5756 45.0867 16.1536 44.7013C17.695 43.481 18.7869 41.8112 19.4291 39.6917H11.8183C11.3045 39.6917 11.0476 39.4509 11.0476 38.9692C11.0476 38.4875 11.3045 38.2466 11.8183 38.2466H48.3309C48.9089 38.2466 49.1979 37.9576 49.1979 37.3796V33.0443H2.76247V37.3796C2.76247 37.9576 3.05149 38.2466 3.62952 38.2466H8.83183C9.34564 38.2466 9.60255 38.4875 9.60255 38.9692C9.60255 39.4509 9.34564 39.6917 8.83183 39.6917H3.62952C2.98726 39.6917 2.44134 39.4669 1.99176 39.0173C1.54217 38.5677 1.31738 38.0218 1.31738 37.3796V7.03274C1.31738 5.87667 1.73485 4.88117 2.56979 4.04623C3.40473 3.21129 4.40023 2.79382 5.5563 2.79382H38.4079C38.9217 2.79382 39.1787 3.03467 39.1787 3.51636C39.1787 3.99806 38.9217 4.23891 38.4079 4.23891H5.5563C4.78559 4.23891 4.12727 4.51187 3.58135 5.05779C3.03543 5.60371 2.76247 6.26203 2.76247 7.03274V31.5992H22.512V25.3372C22.512 24.5665 22.8973 24.0848 23.6681 23.8921V22.9287C23.6681 22.158 23.3469 21.7084 22.7047 21.5799C22.3193 21.4515 22.0624 21.2106 21.934 20.8574C21.8055 20.5042 21.8697 20.167 22.1266 19.8458L25.2095 15.5106C23.4112 15.7033 21.8858 16.4579 20.6334 17.7746C19.381 19.0912 18.7226 20.6808 18.6584 22.5433C19.6218 22.8645 20.1035 23.571 20.1035 24.6628C20.1035 25.2408 19.8787 25.7386 19.4291 26.1561C18.9796 26.5735 18.4657 26.7823 17.8877 26.7823C17.3097 26.7823 16.7959 26.5735 16.3463 26.1561C15.8967 25.7386 15.6719 25.2408 15.6719 24.6628C15.6719 23.571 16.1857 22.8645 17.2133 22.5433C17.2776 19.5247 18.5942 17.1805 21.1632 15.5106H15.4792C15.1581 16.474 14.4837 16.9557 13.4561 16.9557C12.8139 16.9557 12.284 16.7309 11.8665 16.2813C11.449 15.8317 11.2403 15.3179 11.2403 14.7399C11.2403 14.1618 11.449 13.648 11.8665 13.1984C12.284 12.7489 12.8139 12.5241 13.4561 12.5241C14.4837 12.5241 15.1581 13.0379 15.4792 14.0655H36.4812C36.8023 13.0379 37.4767 12.5241 38.5043 12.5241C38.9539 12.5241 39.3392 12.6204 39.6604 12.8131C39.9815 13.0058 40.2384 13.2787 40.4311 13.632C40.6237 13.9852 40.7201 14.3545 40.7201 14.7399C40.7201 15.3179 40.5113 15.8317 40.0939 16.2813C39.6764 16.7309 39.1465 16.9557 38.5043 16.9557C37.4767 16.9557 36.8023 16.474 36.4812 15.5106H30.7972C33.3662 17.1805 34.6828 19.5247 34.7471 22.5433C35.7747 22.8645 36.2885 23.571 36.2885 24.6628C36.2885 24.9197 36.2243 25.1927 36.0958 25.4817C35.9674 25.7707 35.8068 26.0115 35.6141 26.2042C35.4214 26.3969 35.1966 26.5414 34.9397 26.6378C34.6828 26.7341 34.3938 26.7823 34.0727 26.7823C33.4946 26.7823 32.9808 26.5735 32.5313 26.1561C32.0817 25.7386 31.8569 25.2408 31.8569 24.6628C31.8569 23.571 32.3386 22.8645 33.302 22.5433C33.302 21.323 32.9808 20.183 32.3386 19.1233C31.6963 18.0636 30.8614 17.2126 29.8338 16.5703C28.8061 15.9281 27.6822 15.5748 26.4619 15.5106L29.6411 19.8458C29.898 20.167 29.9462 20.5042 29.7856 20.8574C29.625 21.2106 29.3521 21.4515 28.9667 21.5799C28.3887 21.7084 28.0675 22.158 28.0033 22.9287L28.0997 23.8921C28.2281 23.8921 28.3566 23.9242 28.485 23.9884C28.6135 24.0527 28.7419 24.1329 28.8704 24.2293C28.9988 24.3256 29.0952 24.422 29.1594 24.5183C29.2236 24.6146 29.2878 24.727 29.3521 24.8555C29.4163 24.9839 29.4484 25.1445 29.4484 25.3372V31.5992H49.1979V29.2871ZM34.8434 24.6146C34.8434 24.6146 34.8434 24.4942 34.8434 24.2534C34.8434 24.0125 34.5865 23.8921 34.0727 23.8921C33.5589 23.8921 33.302 24.1329 33.302 24.6146C33.302 25.0963 33.5589 25.3372 34.0727 25.3372C34.5865 25.3372 34.8434 25.0963 34.8434 24.6146ZM39.275 14.7399C39.275 14.7399 39.275 14.6114 39.275 14.3545C39.275 14.0976 39.0181 13.9692 38.5043 13.9692C37.9905 13.9692 37.7336 14.2261 37.7336 14.7399C37.7336 15.2537 37.9905 15.5106 38.5043 15.5106C39.0181 15.5106 39.275 15.2537 39.275 14.7399ZM12.6854 14.7399C12.6854 14.7399 12.6854 14.8683 12.6854 15.1252C12.6854 15.3821 12.9423 15.5106 13.4561 15.5106C13.9699 15.5106 14.2268 15.2537 14.2268 14.7399C14.2268 14.2261 13.9699 13.9692 13.4561 13.9692C12.9423 13.9692 12.6854 14.2261 12.6854 14.7399ZM17.8877 25.3372C17.8877 25.3372 18.0162 25.3372 18.2731 25.3372C18.53 25.3372 18.6584 25.0963 18.6584 24.6146C18.6584 24.1329 18.4015 23.8921 17.8877 23.8921C17.3739 23.8921 17.117 24.1329 17.117 24.6146C17.117 25.0963 17.3739 25.3372 17.8877 25.3372ZM23.4754 20.3275C24.5672 20.7771 25.1131 21.6442 25.1131 22.9287V23.8921H26.6546L26.5582 22.9287C26.5582 21.6442 27.1042 20.7771 28.196 20.3275L25.8839 17.052L23.4754 20.3275ZM28.0033 31.5992V25.3372H23.9571V31.5992H28.0033ZM34.9397 45.8574C33.013 44.3802 31.6963 42.325 30.9898 39.6917H20.9706C20.2641 42.325 18.9474 44.3802 17.0207 45.8574H34.9397ZM21.5486 8.95952C21.5486 8.44571 21.7894 8.18881 22.2711 8.18881C22.7528 8.18881 22.9937 8.44571 22.9937 8.95952V9.1522C22.9937 9.60178 22.7528 9.82658 22.2711 9.82658C21.7894 9.82658 21.5486 9.60178 21.5486 9.1522V8.95952ZM25.2095 8.95952C25.2095 8.44571 25.4503 8.18881 25.932 8.18881C26.4137 8.18881 26.6546 8.44571 26.6546 8.95952V9.1522C26.6546 9.60178 26.4137 9.82658 25.932 9.82658C25.4503 9.82658 25.2095 9.60178 25.2095 9.1522V8.95952ZM28.9667 8.95952C28.9667 8.44571 29.2076 8.18881 29.6893 8.18881C30.1709 8.18881 30.4118 8.44571 30.4118 8.95952V9.1522C30.4118 9.60178 30.1709 9.82658 29.6893 9.82658C29.2076 9.82658 28.9667 9.60178 28.9667 9.1522V8.95952ZM24.6796 34.3449C24.6796 34.3449 24.7679 34.2566 24.9446 34.0799C25.1212 33.9033 25.4664 33.815 25.9802 33.815C26.494 33.815 26.9275 33.9916 27.2808 34.3449C27.634 34.6981 27.8106 35.1316 27.8106 35.6455C27.8106 36.1593 27.634 36.5767 27.2808 36.8979C26.9275 37.219 26.494 37.3796 25.9802 37.3796C25.4664 37.3796 25.0329 37.219 24.6796 36.8979C24.3264 36.5767 24.1498 36.1593 24.1498 35.6455C24.1498 35.1316 24.3264 34.6981 24.6796 34.3449ZM25.5948 35.5973C25.5948 35.5973 25.5948 35.6535 25.5948 35.7659C25.5948 35.8783 25.7233 35.9345 25.9802 35.9345C26.2371 35.9345 26.3656 35.8221 26.3656 35.5973C26.3656 35.3725 26.2371 35.2601 25.9802 35.2601C25.7233 35.2601 25.5948 35.3725 25.5948 35.5973Z" fill="#00D444"/>
</g>
</svg>
