<svg width="51" height="50" viewBox="0 0 51 50" fill="none" xmlns="http://www.w3.org/2000/svg">
<g id="Component 3">
<path id="Vector" d="M29.4485 37.2832C29.8981 37.2832 30.1229 37.524 30.1229 38.0057C30.1229 38.4874 29.8981 38.7283 29.4485 38.7283H26.6547V43.6416H27.4254C27.875 43.6416 28.2443 43.8021 28.5333 44.1233C28.8223 44.4444 28.9668 44.8298 28.9668 45.2793V48.0732C28.9668 48.5228 28.8223 48.9081 28.5333 49.2292C28.2443 49.5504 27.875 49.7109 27.4254 49.7109H24.5352C24.2783 49.7109 24.0214 49.6467 23.7645 49.5183C23.5076 49.3898 23.3149 49.1971 23.1864 48.9402C23.058 48.6833 22.9938 48.3943 22.9938 48.0732V45.2793C22.9938 44.8298 23.1383 44.4444 23.4273 44.1233C23.7163 43.8021 24.0856 43.6416 24.5352 43.6416H25.2096V38.7283H17.2134V43.2562C17.2134 43.7058 17.0689 44.0751 16.7799 44.3641C16.4909 44.6531 16.1216 44.7976 15.672 44.7976H12.1075V45.5684C12.1075 45.9537 11.9469 46.307 11.6258 46.6281C11.3046 46.9492 10.9193 47.1098 10.4697 47.1098H7.57951C7.12993 47.1098 6.76063 46.9492 6.47161 46.6281C6.18259 46.307 6.03809 45.9537 6.03809 45.5684V42.6782C6.03809 42.2286 6.18259 41.8432 6.47161 41.5221C6.76063 41.201 7.12993 41.0404 7.57951 41.0404H10.4697C10.9193 41.0404 11.3046 41.201 11.6258 41.5221C11.9469 41.8432 12.1075 42.2286 12.1075 42.6782V43.3526H15.672C15.7362 43.3526 15.7683 43.3204 15.7683 43.2562V38.7283H11.4331C11.1119 38.7283 10.8229 38.5998 10.566 38.3429C10.3091 38.086 10.1807 37.797 10.1807 37.4759V33.9113C10.1807 33.3975 10.4215 33.1406 10.9032 33.1406C11.3849 33.1406 11.6258 33.3975 11.6258 33.9113V37.2832H29.4485ZM10.6624 45.5684V42.6782C10.6624 42.5497 10.5981 42.4855 10.4697 42.4855H7.57951C7.51529 42.4855 7.48317 42.5497 7.48317 42.6782V45.5684C7.48317 45.6326 7.51529 45.6647 7.57951 45.6647H10.4697C10.5981 45.6647 10.6624 45.6326 10.6624 45.5684ZM27.4254 45.0867H24.5352C24.471 45.0867 24.4389 45.1509 24.4389 45.2793V48.0732C24.4389 48.2016 24.471 48.2659 24.5352 48.2659H27.4254C27.4896 48.2659 27.5217 48.2016 27.5217 48.0732V45.2793C27.5217 45.1509 27.4896 45.0867 27.4254 45.0867ZM29.5448 13.7764C29.9944 13.7764 30.2192 14.0173 30.2192 14.499C30.2192 14.9807 29.9944 15.2215 29.5448 15.2215H14.9976C14.4838 15.2215 14.2269 14.9807 14.2269 14.499C14.2269 14.0173 14.4838 13.7764 14.9976 13.7764H29.5448ZM31.857 14.3545C31.857 13.8407 32.0978 13.5838 32.5795 13.5838C33.0612 13.5838 33.3021 13.8407 33.3021 14.3545V14.4508C33.3021 14.9004 33.0612 15.1252 32.5795 15.1252C32.0978 15.1252 31.857 14.9004 31.857 14.4508V14.3545ZM34.0728 14.3545C34.0728 13.8407 34.3136 13.5838 34.7953 13.5838C35.277 13.5838 35.5179 13.8407 35.5179 14.3545V14.4508C35.5179 14.9004 35.277 15.1252 34.7953 15.1252C34.3136 15.1252 34.0728 14.9004 34.0728 14.4508V14.3545ZM36.2886 14.3545C36.2886 13.8407 36.5294 13.5838 37.0111 13.5838C37.4928 13.5838 37.7337 13.8407 37.7337 14.3545V14.4508C37.7337 14.9004 37.4928 15.1252 37.0111 15.1252C36.5294 15.1252 36.2886 14.9004 36.2886 14.4508V14.3545ZM44.3811 2.98647C44.8306 2.98647 45.1999 3.14703 45.489 3.46816C45.778 3.78929 45.9225 4.14254 45.9225 4.52789V7.41807C45.9225 7.7392 45.8583 8.01216 45.7298 8.23695C45.6013 8.46174 45.4087 8.65442 45.1518 8.81498C44.8949 8.97555 44.638 9.05583 44.3811 9.05583H41.4909C41.0413 9.05583 40.6559 8.89527 40.3348 8.57413C40.0137 8.25301 39.8531 7.86765 39.8531 7.41807V6.74369H36.2886C36.2243 6.74369 36.1922 6.77581 36.1922 6.84003V11.368H39.8531C40.1742 11.368 40.4793 11.4643 40.7683 11.657C41.0574 11.8497 41.2982 12.0905 41.4909 12.3795C41.6836 12.6685 41.7799 12.9736 41.7799 13.2948V20.2312C41.7799 20.745 41.5391 21.0019 41.0574 21.0019C40.5757 21.0019 40.3348 20.745 40.3348 20.2312V17.341H11.6258V30.9248C11.6258 31.4386 11.3849 31.6955 10.9032 31.6955C10.4215 31.6955 10.1807 31.4386 10.1807 30.9248V13.2948C10.1807 12.9736 10.277 12.6685 10.4697 12.3795C10.6624 12.0905 10.9032 11.8497 11.1922 11.657C11.4812 11.4643 11.7863 11.368 12.1075 11.368H15.7683V6.84003C15.7683 6.77581 15.7362 6.74369 15.672 6.74369H12.1075V7.41807C12.1075 7.7392 12.0272 8.01216 11.8666 8.23695C11.706 8.46174 11.4973 8.65442 11.2404 8.81498C10.9835 8.97555 10.7266 9.05583 10.4697 9.05583H7.57951C7.12993 9.05583 6.76063 8.89527 6.47161 8.57413C6.18259 8.25301 6.03809 7.86765 6.03809 7.41807V4.52789C6.03809 4.27099 6.10231 4.01408 6.23076 3.75718C6.35922 3.50027 6.55189 3.3076 6.8088 3.17915C7.0657 3.05069 7.32261 2.98647 7.57951 2.98647H10.4697C10.9193 2.98647 11.3046 3.14703 11.6258 3.46816C11.9469 3.78929 12.1075 4.14254 12.1075 4.52789V5.29861H15.672C15.9289 5.29861 16.1858 5.36283 16.4427 5.49128C16.6996 5.61974 16.8923 5.81242 17.0207 6.06932C17.1492 6.32622 17.2134 6.58313 17.2134 6.84003V11.368H25.2096V6.45467H24.5352C24.2783 6.45467 24.0214 6.39045 23.7645 6.262C23.5076 6.13354 23.3149 5.94087 23.1864 5.68396C23.058 5.42706 22.9938 5.13804 22.9938 4.81691V2.02308C22.9938 1.57349 23.1383 1.18814 23.4273 0.867008C23.7163 0.545876 24.0856 0.385311 24.5352 0.385311H27.4254C27.875 0.385311 28.2443 0.545876 28.5333 0.867008C28.8223 1.18814 28.9668 1.57349 28.9668 2.02308V4.81691C28.9668 5.26649 28.8223 5.65185 28.5333 5.97298C28.2443 6.29411 27.875 6.45467 27.4254 6.45467H26.6547V11.368H34.7471V6.84003C34.7471 6.39045 34.8917 6.02115 35.1807 5.73213C35.4697 5.44312 35.839 5.29861 36.2886 5.29861H39.8531V4.52789C39.8531 4.14254 40.0137 3.78929 40.3348 3.46816C40.6559 3.14703 41.0413 2.98647 41.4909 2.98647H44.3811ZM10.6624 7.41807V4.52789C10.6624 4.46367 10.5981 4.43155 10.4697 4.43155H7.57951C7.51529 4.43155 7.48317 4.46367 7.48317 4.52789V7.41807C7.48317 7.54652 7.51529 7.61074 7.57951 7.61074H10.4697C10.5981 7.61074 10.6624 7.54652 10.6624 7.41807ZM24.5352 5.00959H27.4254C27.4896 5.00959 27.5217 4.94536 27.5217 4.81691V2.02308C27.5217 1.89462 27.4896 1.8304 27.4254 1.8304H24.5352C24.471 1.8304 24.4389 1.89462 24.4389 2.02308V4.81691C24.4389 4.94536 24.471 5.00959 24.5352 5.00959ZM39.8531 12.8131H12.1075C11.7863 12.8131 11.6258 12.9736 11.6258 13.2948V15.8959H40.3348V13.2948C40.3348 12.9736 40.1742 12.8131 39.8531 12.8131ZM44.4774 7.41807V4.52789C44.4774 4.46367 44.4453 4.43155 44.3811 4.43155H41.4909C41.3624 4.43155 41.2982 4.46367 41.2982 4.52789V7.41807C41.2982 7.54652 41.3624 7.61074 41.4909 7.61074H44.3811C44.4453 7.61074 44.4774 7.54652 44.4774 7.41807ZM44.3811 41.0404C44.638 41.0404 44.8949 41.1207 45.1518 41.2813C45.4087 41.4418 45.6013 41.6345 45.7298 41.8593C45.8583 42.0841 45.9225 42.3571 45.9225 42.6782V45.5684C45.9225 45.8253 45.8583 46.0822 45.7298 46.3391C45.6013 46.596 45.4087 46.7887 45.1518 46.9171C44.8949 47.0456 44.638 47.1098 44.3811 47.1098H41.4909C41.2982 47.1098 41.1055 47.0777 40.9128 47.0134C40.7202 46.9492 40.5435 46.8368 40.383 46.6763C40.2224 46.5157 40.094 46.3391 39.9976 46.1464C39.9013 45.9537 39.8531 45.761 39.8531 45.5684V44.7976H36.2886C35.839 44.7976 35.4697 44.6531 35.1807 44.3641C34.8917 44.0751 34.7471 43.7058 34.7471 43.2562V38.7283H32.3387C31.8891 38.7283 31.6643 38.4874 31.6643 38.0057C31.6643 37.524 31.8891 37.2832 32.3387 37.2832H40.3348V23.2177C40.3348 22.7039 40.5757 22.447 41.0574 22.447C41.5391 22.447 41.7799 22.7039 41.7799 23.2177V37.4759C41.7799 37.797 41.6514 38.086 41.3945 38.3429C41.1376 38.5998 40.8486 38.7283 40.5275 38.7283H36.1922V43.2562C36.1922 43.3204 36.2243 43.3526 36.2886 43.3526H39.8531V42.6782C39.8531 42.2286 40.0137 41.8432 40.3348 41.5221C40.6559 41.201 41.0413 41.0404 41.4909 41.0404H44.3811ZM44.4774 45.5684V42.6782C44.4774 42.5497 44.4453 42.4855 44.3811 42.4855H41.4909C41.3624 42.4855 41.2982 42.5497 41.2982 42.6782V45.5684C41.2982 45.6326 41.3624 45.6647 41.4909 45.6647H44.3811C44.4453 45.6647 44.4774 45.6326 44.4774 45.5684ZM16.8281 27.0712L19.5256 29.7687C19.9109 30.0899 19.9109 30.4431 19.5256 30.8285C19.3971 30.9569 19.2365 31.0211 19.0439 31.0211C18.8512 31.0211 18.6906 30.9569 18.5622 30.8285L15.2866 27.5529C14.9655 27.2318 14.9655 26.9107 15.2866 26.5896L18.5622 23.314C18.8833 22.9929 19.2205 23.0089 19.5737 23.3622C19.927 23.7154 19.9109 24.0526 19.5256 24.3738L16.8281 27.0712ZM36.6739 26.5896C36.9951 26.9107 36.9951 27.2318 36.6739 27.5529L33.3984 30.8285C33.2699 30.9569 33.1094 31.0211 32.9167 31.0211C32.724 31.0211 32.5635 30.9569 32.435 30.8285C32.0496 30.4431 32.0496 30.0899 32.435 29.7687L35.1325 27.0712L32.435 24.3738C32.0496 24.0526 32.0336 23.7154 32.3868 23.3622C32.7401 23.0089 33.0773 22.9929 33.3984 23.314L36.6739 26.5896ZM24.3425 23.9884C24.5352 23.5388 24.8563 23.4264 25.3059 23.6512C25.7555 23.876 25.8518 24.2132 25.5949 24.6628L22.4157 30.6358C22.2873 30.8927 22.0625 31.0211 21.7414 31.0211C21.6129 31.0211 21.5166 30.989 21.4523 30.9248C21.0028 30.6679 20.9064 30.3468 21.1633 29.9614L24.3425 23.9884ZM25.0169 30.1541C25.0169 29.6403 25.2577 29.3834 25.7394 29.3834C26.2211 29.3834 26.462 29.6403 26.462 30.1541V30.2504C26.462 30.7 26.2211 30.9248 25.7394 30.9248C25.2577 30.9248 25.0169 30.7 25.0169 30.2504V30.1541ZM27.4254 30.1541C27.4254 29.6403 27.6662 29.3834 28.1479 29.3834C28.6296 29.3834 28.8705 29.6403 28.8705 30.1541V30.2504C28.8705 30.7 28.6296 30.9248 28.1479 30.9248C27.6662 30.9248 27.4254 30.7 27.4254 30.2504V30.1541ZM29.7375 30.1541C29.7375 29.6403 29.9784 29.3834 30.4601 29.3834C30.9417 29.3834 31.1826 29.6403 31.1826 30.1541V30.2504C31.1826 30.7 30.9417 30.9248 30.4601 30.9248C29.9784 30.9248 29.7375 30.7 29.7375 30.2504V30.1541Z" fill="#1B1D21"/>
</g>
</svg>
