<svg width="51" height="50" viewBox="0 0 51 50" fill="none" xmlns="http://www.w3.org/2000/svg">
<g id="Component 3">
<path id="Vector" d="M48.0419 3.75722C48.7483 3.75722 49.3585 4.01413 49.8723 4.52793C50.3861 5.04174 50.643 5.65189 50.643 6.35838V44.7013C50.643 45.1509 50.4824 45.5363 50.1613 45.8574C49.8402 46.1785 49.4548 46.3391 49.0052 46.3391H2.95515C2.50557 46.3391 2.12021 46.1785 1.79908 45.8574C1.47795 45.5363 1.31738 45.1509 1.31738 44.7013V6.35838C1.31738 5.65189 1.57429 5.04174 2.0881 4.52793C2.6019 4.01413 3.21205 3.75722 3.91854 3.75722H12.4927C13.0065 3.75722 13.2634 3.99807 13.2634 4.47976C13.2634 4.96146 13.0065 5.2023 12.4927 5.2023H3.91854C3.59741 5.2023 3.32445 5.3147 3.09966 5.53949C2.87487 5.76429 2.76247 6.03725 2.76247 6.35838V10.9827C15.993 10.9184 29.1915 10.9184 42.3578 10.9827C42.8717 10.9827 43.1286 11.2235 43.1286 11.7052C43.1286 12.1869 42.8717 12.4277 42.3578 12.4277C29.1915 12.3635 15.993 12.3635 2.76247 12.4277V44.7013C2.76247 44.8298 2.8267 44.894 2.95515 44.894H49.0052C49.1337 44.894 49.1979 44.8298 49.1979 44.7013V12.4277C47.9776 12.3635 46.7894 12.3635 45.6334 12.4277C45.1196 12.4277 44.8627 12.1869 44.8627 11.7052C44.8627 11.2235 45.0875 10.9827 45.537 10.9827C46.7573 10.9184 47.9776 10.9184 49.1979 10.9827V6.35838C49.1979 6.03725 49.0855 5.76429 48.8607 5.53949C48.6359 5.3147 48.363 5.2023 48.0419 5.2023H15.4792C14.9654 5.2023 14.7085 4.96146 14.7085 4.47976C14.7085 3.99807 14.9654 3.75722 15.4792 3.75722H48.0419ZM34.2654 7.51445C34.7149 7.51445 34.9397 7.75529 34.9397 8.23699C34.9397 8.71869 34.7149 8.95953 34.2654 8.95953H8.44648C7.99689 8.95953 7.7721 8.71869 7.7721 8.23699C7.7721 7.75529 7.99689 7.51445 8.44648 7.51445H34.2654ZM36.9629 7.99614C36.9629 7.54656 37.2037 7.32177 37.6854 7.32177C38.1671 7.32177 38.4079 7.54656 38.4079 7.99614V8.18882C38.4079 8.6384 38.1671 8.86319 37.6854 8.86319C37.2037 8.86319 36.9629 8.6384 36.9629 8.18882V7.99614ZM39.853 7.99614C39.853 7.54656 40.0939 7.32177 40.5756 7.32177C41.0573 7.32177 41.2981 7.54656 41.2981 7.99614V8.18882C41.2981 8.6384 41.0573 8.86319 40.5756 8.86319C40.0939 8.86319 39.853 8.6384 39.853 8.18882V7.99614ZM42.7432 7.99614C42.7432 7.54656 42.9841 7.32177 43.4657 7.32177C43.9474 7.32177 44.1883 7.54656 44.1883 7.99614V8.18882C44.1883 8.6384 43.9474 8.86319 43.4657 8.86319C42.9841 8.86319 42.7432 8.6384 42.7432 8.18882V7.99614ZM12.1074 35.4528C12.1074 35.0032 12.3482 34.7784 12.8299 34.7784C13.3116 34.7784 13.5525 35.0032 13.5525 35.4528V35.5491C13.5525 36.0629 13.3116 36.3198 12.8299 36.3198C12.3482 36.3198 12.1074 36.0629 12.1074 35.5491V35.4528ZM14.9975 35.4528C14.9975 35.0032 15.2384 34.7784 15.7201 34.7784C16.2018 34.7784 16.4426 35.0032 16.4426 35.4528V35.5491C16.4426 36.0629 16.2018 36.3198 15.7201 36.3198C15.2384 36.3198 14.9975 36.0629 14.9975 35.5491V35.4528ZM32.8203 20.1349C33.2699 20.1349 33.4946 20.3757 33.4946 20.8574C33.4946 21.3391 33.2699 21.58 32.8203 21.58H20.0072C19.5576 21.58 19.3328 21.3391 19.3328 20.8574C19.3328 20.3757 19.5576 20.1349 20.0072 20.1349H32.8203ZM29.2557 23.3141C29.7053 23.3141 29.9301 23.5549 29.9301 24.0366C29.9301 24.5183 29.7053 24.7591 29.2557 24.7591H23.5717C23.0579 24.7591 22.801 24.5183 22.801 24.0366C22.801 23.5549 23.0579 23.3141 23.5717 23.3141H29.2557ZM38.986 34.7784C39.4998 34.7784 39.7567 35.0193 39.7567 35.501C39.7567 35.9827 39.4998 36.2235 38.986 36.2235H36.9629C36.5133 36.2235 36.2885 35.9827 36.2885 35.501C36.2885 35.0193 36.5133 34.7784 36.9629 34.7784H38.986ZM39.7567 27.553C40.5274 27.553 41.1857 27.8259 41.7316 28.3719C42.2776 28.9178 42.5505 29.5761 42.5505 30.3468C42.5505 31.1175 42.2776 31.7598 41.7316 32.2736C41.1857 32.7874 40.5274 33.0443 39.7567 33.0443H23.9571C23.4433 33.0443 23.1864 32.8035 23.1864 32.3218C23.1864 31.8401 23.4433 31.5992 23.9571 31.5992H39.7567C40.142 31.5992 40.4632 31.4708 40.7201 31.2139C40.977 30.957 41.1054 30.6519 41.1054 30.2986C41.1054 29.9454 40.977 29.6403 40.7201 29.3834C40.4632 29.1265 40.142 28.9981 39.7567 28.9981H13.0708C12.6854 28.9981 12.3643 29.1265 12.1074 29.3834C11.8505 29.6403 11.722 29.9454 11.722 30.2986C11.722 30.6519 11.8505 30.957 12.1074 31.2139C12.3643 31.4708 12.6854 31.5992 13.0708 31.5992H20.9706C21.4844 31.5992 21.7413 31.8401 21.7413 32.3218C21.7413 32.8035 21.4844 33.0443 20.9706 33.0443H13.0708C12.3 33.0443 11.6417 32.7874 11.0958 32.2736C10.5499 31.7598 10.2769 31.1175 10.2769 30.3468C10.2769 29.5761 10.5499 28.9178 11.0958 28.3719C11.6417 27.8259 12.3 27.553 13.0708 27.553H39.7567Z" fill="#00D444"/>
</g>
</svg>
