<svg width="35" height="35" viewBox="0 0 35 35" fill="none" xmlns="http://www.w3.org/2000/svg">
<g id="Component 3">
<path id="Vector" d="M16.8254 3.64154C16.8254 3.19196 17.0502 2.96716 17.4997 2.96716C17.9493 2.96716 18.1741 3.19196 18.1741 3.64154C18.1741 3.82137 18.0954 3.97873 17.9381 4.1136C17.7807 4.24847 17.6121 4.31591 17.4323 4.31591C17.0277 4.27095 16.8254 4.04616 16.8254 3.64154ZM30.9872 4.31591C31.4368 4.31591 31.6616 4.5407 31.6616 4.99029V15.9826C31.6616 18.8599 31.0659 21.5911 29.8745 24.1762C28.6831 26.7613 27.0309 28.9643 24.9179 30.7851C22.8048 32.6059 20.3995 33.9434 17.7021 34.7976C17.6121 34.7976 17.5447 34.7976 17.4997 34.7976C17.4548 34.7976 17.3873 34.7976 17.2974 34.7976C14.555 33.9434 12.116 32.5834 9.98047 30.7176C7.84496 28.8519 6.20398 26.6377 5.05754 24.0751C3.91111 21.5124 3.33789 18.8149 3.33789 15.9826V4.99029C3.33789 4.5407 3.56268 4.31591 4.01226 4.31591C4.95639 4.31591 5.7544 3.98996 6.40629 3.33807C7.05819 2.68618 7.38413 1.88816 7.38413 0.944042C7.38413 0.494461 7.60892 0.269669 8.05851 0.269669H26.941C27.3906 0.269669 27.6153 0.494461 27.6153 0.944042C27.6153 1.88816 27.9413 2.68618 28.5932 3.33807C29.2451 3.98996 30.0431 4.31591 30.9872 4.31591ZM30.3128 15.9826V5.59722C29.6385 5.50731 29.0091 5.28251 28.4246 4.92285C27.8401 4.56318 27.3681 4.09112 27.0084 3.50666C26.6487 2.9222 26.424 2.29279 26.334 1.61842H8.66544C8.53057 2.65245 8.09223 3.54038 7.35041 4.28219C6.6086 5.024 5.72068 5.46235 4.68664 5.59722V15.9826C4.68664 19.9839 5.86679 23.5918 8.2271 26.8063C10.5874 30.0208 13.6783 32.235 17.4997 33.4489C21.3212 32.235 24.4121 30.032 26.7724 26.84C29.1327 23.648 30.3128 20.0288 30.3128 15.9826ZM28.5595 6.47391C28.8292 6.60878 28.9641 6.83357 28.9641 7.14828V15.9826C28.9641 19.6242 27.9413 22.8949 25.8957 25.7947C23.8501 28.6945 21.1189 30.7289 17.7021 31.8978C17.6571 31.9428 17.5897 31.9652 17.4997 31.9652C17.4098 31.9652 17.3424 31.9428 17.2974 31.8978C13.8806 30.7289 11.1494 28.6945 9.10379 25.7947C7.05819 22.8949 6.03539 19.6242 6.03539 15.9826V7.14828C6.03539 6.83357 6.17026 6.60878 6.44001 6.47391C7.87867 5.84449 8.91271 4.81045 9.54213 3.37179C9.677 3.10204 9.9018 2.96716 10.2165 2.96716H14.8022C15.2518 2.96716 15.4766 3.19196 15.4766 3.64154C15.4766 4.09112 15.2518 4.31591 14.8022 4.31591H10.6211C9.9018 5.75458 8.8228 6.83357 7.38413 7.55291V15.9826C7.38413 19.3095 8.30578 22.288 10.1491 24.918C11.9924 27.5481 14.4426 29.4251 17.4997 30.5491C20.5569 29.4251 23.0071 27.5481 24.8504 24.918C26.6937 22.288 27.6153 19.3095 27.6153 15.9826V7.55291C26.1767 6.83357 25.0977 5.75458 24.3784 4.31591H20.1972C19.7477 4.31591 19.5229 4.09112 19.5229 3.64154C19.5229 3.19196 19.7477 2.96716 20.1972 2.96716H24.783C25.0977 2.96716 25.3225 3.10204 25.4574 3.37179C26.0868 4.81045 27.1208 5.84449 28.5595 6.47391ZM13.2175 11.9026C13.2175 11.9026 13.5153 11.6048 14.111 11.0091C14.7067 10.4134 15.8363 10.1155 17.4997 10.1155C19.1632 10.1155 20.5906 10.7112 21.782 11.9026C22.9734 13.094 23.5691 14.5214 23.5691 16.1849C23.5691 17.8483 22.9734 19.2758 21.782 20.4672C20.5906 21.6586 19.1632 22.2543 17.4997 22.2543C15.8363 22.2543 14.4089 21.6586 13.2175 20.4672C12.0261 19.2758 11.4304 17.8483 11.4304 16.1849C11.4304 14.5214 12.0261 13.094 13.2175 11.9026ZM14.1616 19.523C14.1616 19.523 14.392 19.7535 14.8528 20.2143C15.3136 20.6751 16.196 20.9055 17.4997 20.9055C18.8035 20.9055 19.9162 20.4447 20.8379 19.523C21.7595 18.6014 22.2204 17.4887 22.2204 16.1849C22.2204 14.8811 21.7595 13.7684 20.8379 12.8467C19.9162 11.9251 18.8035 11.4643 17.4997 11.4643C16.196 11.4643 15.0832 11.9251 14.1616 12.8467C13.2399 13.7684 12.7791 14.8811 12.7791 16.1849C12.7791 17.4887 13.2399 18.6014 14.1616 19.523ZM19.7252 14.3641C20.0399 14.0494 20.3546 14.0494 20.6693 14.3641C20.984 14.6788 20.984 14.9935 20.6693 15.3082L17.2974 18.6801C17.1626 18.8149 17.0052 18.8824 16.8254 18.8824C16.6455 18.8824 16.4882 18.8149 16.3533 18.6801L15.0046 17.3313C14.6898 17.0166 14.6898 16.7019 15.0046 16.3872C15.3193 16.0725 15.634 16.0725 15.9487 16.3872L16.8254 17.2639L19.7252 14.3641Z" fill="white"/>
</g>
</svg>
